# xmcd CD database file
#
# Track frame offsets:
#	150
#	17389
#	34597
#	45142
#	58965
#	70738
#	83062
#	99075
#	107085
#	126348
#	135177
#	151449
#	164122
#
# Disc length: 2346 seconds
#
# Revision: 0
# Processed by: cddbd v1.5.2PL0 Copyright (c) Steve Scherf et al.
# Submitted via: CDex 1.51
#
DISCID=9a09280d
DTITLE=LORETTE LYNN - VAN LEAR ROSE
DYEAR=2004
DGENRE=Country
TTITLE0=Loretta Lynn - Van Lear Rose
TTITLE1=Loretta Lynn - Portland Oregon
TTITLE2=Loretta Lynn - Trouble On The Line
TTITLE3=Loretta Lynn - Family Tree
TTITLE4=Loretta Lynn - Have Mercy
TTITLE5=Loretta Lynn - High On A Mountain Top
TTITLE6=Loretta Lynn - Little Red Shoes
TTITLE7=Loretta Lynn - God Makes No Mistakes
TTITLE8=Loretta Lynn - Women's Prison
TTITLE9=Loretta Lynn - This Old House
TTITLE10=Loretta Lynn - Mrs Leroy Brown
TTITLE11=Loretta Lynn - Miss Being Mrs.
TTITLE12=Loretta Lynn - Story Of My Life
EXTD=YEAR: 2004
EXTT0=
EXTT1=
EXTT2=
EXTT3=
EXTT4=
EXTT5=
EXTT6=
EXTT7=
EXTT8=
EXTT9=
EXTT10=
EXTT11=
EXTT12=
PLAYORDER=
